<?xml version="1.0" encoding="UTF-8"?>
<svg id="a" xmlns="http://www.w3.org/2000/svg" viewBox="0 0 384 91.21453">
  <path d="M45.60665,0C20.42076,0,0,20.41938,0,45.60474c0,25.18398,20.42076,45.60979,45.60665,45.60979,25.18285,0,45.60358-20.42581,45.60358-45.60979C91.21022,20.41938,70.7895,0,45.60665,0ZM55.07713,68.93457h-14.51508l17.51392-17.83432H11.21476v-11.02879h46.86121l-17.51392-17.83379h14.51508l23.02607,23.34849-23.02607,23.34842Z" style="fill: #fff; stroke-width: 0px;"/>
  <g>
    <path d="M144.10657,91.16168c-25.11814,0-45.55315-20.43687-45.55315-45.55688C98.55342,20.48728,118.98843.0529,144.10657.0529c25.11441,0,45.54692,20.43438,45.54692,45.5519,0,25.12001-20.43251,45.55688-45.54692,45.55688ZM144.10657,2.60439c-23.71127,0-43.00165,19.29007-43.00165,43.00041,0,23.71345,19.29038,43.00539,43.00165,43.00539,23.70784,0,42.99542-19.29194,42.99542-43.00539,0-23.71034-19.28758-43.00041-42.99542-43.00041Z" style="fill: #fff; stroke-width: 0px;"/>
    <polygon points="140.24954 71.79342 129.91694 71.79342 129.91694 22.33811 165.11025 22.33811 165.11025 31.08957 140.24954 31.08957 140.24954 42.24689 162.01298 42.24689 162.01298 50.99122 140.24954 50.99122 140.24954 71.79342" style="fill: #fff; stroke-width: 0px;"/>
  </g>
  <g>
    <path d="M241.27142,91.16168c-25.1169,0-45.55065-20.43687-45.55065-45.55688C195.72076,20.48728,216.15452.0529,241.27142.0529c25.11939,0,45.55502,20.43438,45.55502,45.5519,0,25.12001-20.43563,45.55688-45.55502,45.55688ZM241.27142,2.60439c-23.70971,0-42.99916,19.29007-42.99916,43.00041,0,23.71345,19.28945,43.00539,42.99916,43.00539,23.7122,0,43.00352-19.29194,43.00352-43.00539,0-23.71034-19.29132-43.00041-43.00352-43.00041Z" style="fill: #fff; stroke-width: 0px;"/>
    <polygon points="246.44161 71.79342 236.11171 71.79342 236.11171 31.08957 221.16373 31.08957 221.16373 22.33811 261.38414 22.33811 261.38414 31.08957 246.44161 31.08957 246.44161 71.79342" style="fill: #fff; stroke-width: 0px;"/>
  </g>
  <g>
    <path d="M338.44623,91.16168c-25.11752,0-45.55252-20.43687-45.55252-45.55688C292.89371,20.48728,313.32871.0529,338.44623.0529s45.55377,20.43438,45.55377,45.5519c0,25.12001-20.43563,45.55688-45.55377,45.55688ZM338.44623,2.60439c-23.71096,0-43.00103,19.29007-43.00103,43.00041,0,23.71345,19.29007,43.00539,43.00103,43.00539s43.00228-19.29194,43.00228-43.00539c0-23.71034-19.29069-43.00041-43.00228-43.00041Z" style="fill: #fff; stroke-width: 0px;"/>
    <path d="M350.43881,37.2157c-.8277-2.96223-2.41574-8.54018-10.95424-8.54018-4.95688,0-12.2577,3.30782-12.2577,17.28642,0,8.8855,3.51258,16.87639,12.2577,16.87639,5.71666,0,9.70882-3.23682,10.95424-9.30204h10.32822c-2.06599,10.74751-9.08942,18.25332-21.48907,18.25332-13.15118,0-22.58811-8.88275-22.58811-25.96469,0-17.28642,9.9856-26.10226,22.72349-26.10226,14.81208,0,20.80439,10.19143,21.35369,17.49304h-10.32822Z" style="fill: #fff; stroke-width: 0px;"/>
  </g>
</svg>