<?xml version="1.0" encoding="UTF-8"?>
<!-- Generator: Adobe Illustrator 28.0.0, SVG Export Plug-In . SVG Version: 6.00 Build 0)  -->
<svg version="1.1" id="Layer_1" xmlns="http://www.w3.org/2000/svg" xmlns:xlink="http://www.w3.org/1999/xlink" x="0px" y="0px" viewBox="0 0 196.2 241.1" style="enable-background:new 0 0 196.2 241.1;" xml:space="preserve">
<g>
	<defs>
		<rect id="SVGID_1_" x="-64.6" y="-66.8" width="330.4" height="370.3"/>
	</defs>
	<clipPath id="SVGID_00000122002041081711273050000005287760756615777963_">
		<use xlink:href="#SVGID_1_" style="overflow:visible;"/>
	</clipPath>
	<path style="clip-path:url(#SVGID_00000122002041081711273050000005287760756615777963_);fill:#B56D29;" d="M0.3,122.5   c-0.1-8.1-0.2-16.1-0.4-24.2c-0.3-16.2,3.5-31.4,10.9-45.7c9.6-18.3,23.6-32.3,42-41.8C63.7,5.2,75.2,1.7,87.3,0.5   c25.4-2.5,48.5,3.6,69,18.9c21.3,16,34,37.3,38.3,63.6c0.5,3.1,0.7,6.2,0.8,9.3c0.3,15.7,0.5,31.4,0.7,47.1   c0.1,6.8-1.6,13.1-5.4,18.8c-2,2.9-4.3,5.6-7.3,7.5c-6.3,4.1-10.6,9.9-14.4,16.2c-2.3,3.9-4.6,7.8-7.4,11.4   c-5.9,7.9-14.2,11.7-23.8,12.8c-4.4,0.5-8.8,0.2-13.2-0.5c-4-0.6-7.4,0.3-10.5,2.7c-4.6,3.6-8.3,8-11.7,12.7   c-3.2,4.5-6.9,8.6-11.2,12.1c-7.9,6.3-16.8,9-26.8,6.9c-6.1-1.3-11-4.7-15-9.4c-4.7-5.5-7.7-11.9-10.2-18.6   c-2.1-5.8-4.2-11.7-6.9-17.3c-3.6-7.6-9.1-13.6-16.1-18.3c-8.6-5.7-13.6-13.8-15.1-24c-0.3-1.8-0.3-3.7-0.4-5.6   C0.5,138.7,0.4,130.6,0.3,122.5 M9.6,86c-0.1,0.4-0.2,0.8-0.2,1.2c-0.2,3.6-0.4,7.3-0.4,10.9c0.1,9.3,0.3,18.5,0.4,27.8   c0.1,8.3,0.2,16.6,0.4,24.9c0,0.3,0.1,0.6,0.1,0.9c1.3,7.7,5.3,13.5,11.8,17.8c7.4,4.9,13,11.4,17.4,19c3.4,5.9,5.6,12.3,7.8,18.6   c1.8,5.2,3.7,10.3,6.9,14.8c2.8,4,6.1,7.5,10.9,9c7.3,2.4,13.9,0.5,20-3.9c4.7-3.4,8.2-7.9,11.7-12.6c3.9-5.3,8.2-10.2,13.6-14   c4-2.7,8.4-4.2,13.3-3.9c4.5,0.3,9,0.8,13.4,0.6c7.4-0.4,13.6-3.5,18.1-9.5c1.7-2.3,3.4-4.7,4.8-7.2c5-8.9,10.9-16.8,19.4-22.8   c5.5-3.9,8.1-9.8,8.1-16.6c0-12-0.3-24-0.5-36c0-2-0.1-3.9-0.1-5.9c0-5.8,0.1-11.5-1-17.3c-1.9-10-5.2-19.5-10.3-28.3   c-0.2-0.4-0.3-0.8-0.5-1.2c-3-5-6.4-9.7-10.3-14.1c-0.8-0.9-1.4-0.9-2.4-0.5c-9.2,4.2-17.1,10.1-24.1,17.4c-2.8,3-4.9,6.3-5.5,10.3   c-0.6,3.8-0.8,7.8-1.2,11.7c-0.3,3-0.7,5.9-1.3,8.8c-0.5,2.4-2.4,3.8-4.6,3.3c-1.1-0.3-2.3-1.2-3.1-2.1c-1.4-1.5-2.7-3.1-4.8-3.6   c-5-1.3-9.9-1.2-14.5,1.4c-2,1.1-4.1,2.2-6.1,3.3c-5,2.6-9.7,1.5-12.9-3.2c-1.1-1.5-2.1-3.1-3.1-4.7c-1.7-2.7-3.3-5.5-5.2-8.1   c-2.9-4-7-5.8-11.9-4.4c-3.4,1-6.8,2.2-10.1,3.7c-13.5,6.1-26.3,5.1-38.7-3c-0.4-0.2-0.7-0.5-1.2-0.8c-0.2,0.5-0.4,0.9-0.5,1.4   c-1.1,4.1-2.2,8.2-3.2,12.4C9.7,83,9.7,84.5,9.6,86 M143.3,21.2C122.8,9.4,101.1,5.7,78.2,11c-24,5.5-42.6,19-56.1,39.7   c4.2,2.9,8.5,4.8,13.3,5.6c5.2,0.9,9.2-0.8,12.5-4.8c1.9-2.3,3.7-4.7,5.8-6.8c4.9-5.1,10.5-5.5,16.1-1.2c2.1,1.6,4.2,3.5,5.9,5.6   c4.3,5,9.4,8.1,16.3,7.2c1.8-0.2,3.2,0.8,4.2,2.1c0.9,1.2,1.8,2.5,2.7,3.8c1.8,2.7,4.3,3.1,6.8,1c0.5-0.5,1-1,1.4-1.6   c4-5.3,8-10.7,11.9-16.1c5.5-7.6,11.8-14.4,18.8-20.5C139.5,23.6,141.3,22.5,143.3,21.2"/>
	<path style="clip-path:url(#SVGID_00000122002041081711273050000005287760756615777963_);fill:#F0C9B4;" d="M186.5,99.2   c0,2,0.1,3.9,0.1,5.9c0.2,12,0.4,24,0.5,36c0,6.8-2.6,12.7-8.1,16.6c-8.5,6-14.5,13.9-19.4,22.8c-1.4,2.5-3.1,4.9-4.8,7.2   c-4.5,6.1-10.8,9.1-18.1,9.5c-4.4,0.3-8.9-0.3-13.4-0.6c-4.9-0.4-9.3,1.1-13.3,3.9c-5.5,3.7-9.7,8.7-13.6,14   c-3.4,4.6-7,9.1-11.7,12.6c-6,4.4-12.6,6.2-20,3.9c-4.8-1.5-8.1-5-10.9-9c-3.2-4.5-5.1-9.6-6.9-14.8c-2.2-6.4-4.4-12.8-7.8-18.6   c-4.4-7.6-10-14.1-17.4-19c-6.4-4.3-10.5-10.1-11.8-17.8c-0.1-0.3-0.1-0.6-0.1-0.9c-0.1-8.3-0.3-16.6-0.4-24.9   c6.7,2.3,13.4,4.5,20,6.8c10.7,3.8,20.1,9.6,27.3,18.5c3.3,4.1,6.6,8.2,10.7,11.6c3.8,3.1,8,4.6,13,3.8c5.3-0.9,9.9-3,13-7.5   c2.9-4.2,5.9-8.5,8.7-12.7c2.1-3,4.4-5.8,7.4-7.9c3.2-2.2,6.5-2.7,9.9-0.5c3.5,2.2,7,4.4,10.4,6.7c4.4,3,9.1,3.9,14.1,1.8   c2-0.9,4.1-1.7,6.1-2.5c5.2-2.2,10.6-3.7,16.4-3.4c4.6,0.2,7.5-3.2,7.3-7.9c-0.2-4.2-0.3-8.3-0.1-12.5c0.1-3.5,1.2-6.8,3.4-9.6   C180.3,106.7,183.4,103,186.5,99.2"/>
	<path style="clip-path:url(#SVGID_00000122002041081711273050000005287760756615777963_);fill:#EF3B24;" d="M186.5,99.2   c-3.1,3.8-6.2,7.5-9.3,11.3c-2.3,2.8-3.3,6.1-3.4,9.6c-0.2,4.2-0.1,8.3,0.1,12.5c0.2,4.6-2.7,8.1-7.3,7.9   c-5.8-0.3-11.2,1.1-16.4,3.4c-2,0.9-4.1,1.7-6.1,2.5c-5,2.1-9.7,1.3-14.1-1.8c-3.4-2.3-6.9-4.5-10.4-6.7c-3.4-2.1-6.7-1.6-9.9,0.5   c-3.1,2.1-5.4,4.9-7.4,7.9c-2.9,4.3-5.8,8.5-8.7,12.7c-3.2,4.5-7.7,6.6-13,7.5c-5,0.8-9.2-0.6-13-3.8c-4.1-3.4-7.4-7.5-10.7-11.6   c-7.2-9-16.6-14.7-27.3-18.5c-6.6-2.4-13.3-4.6-20-6.8c-0.1-9.3-0.4-18.5-0.4-27.8c0-3.6,0.2-7.3,0.4-10.9c0-0.4,0.2-0.8,0.2-1.2   c2.1,2.3,4,4.8,6.4,6.7c4.7,3.9,10.3,4.7,16.2,4.5c6-0.2,12.1-0.5,18.1-0.3c6.1,0.2,11.6,2.2,15.7,7.1c1.7,2.1,3.2,4.3,4.6,6.5   c1.9,3.1,3.6,6.4,5.5,9.6c2.1,3.5,4.6,6.7,7.8,9.2c3.9,3.1,7.9,3.3,11.8,0.2c4.8-3.8,9.4-7.8,14-11.9c3.3-2.9,6.4-5.8,10.7-7.2   c4.9-1.6,9-0.5,12.2,3.6c2.4,2.9,4.8,5.9,7.2,8.8c1.5,1.8,3.3,3.2,5.5,4.1c3.3,1.3,6.3,0.8,8.7-1.7c1.3-1.3,2.3-3,3-4.6   c1.3-3,2.4-6.1,3.5-9.2c1-2.7,2.1-5.3,4.2-7.4c2.4-2.4,3.7-5.3,3.9-8.7c0.1-1.2-0.2-2.5-0.8-3.5c-1-1.6-2.2-3-3.5-4.3   c-3.2-3.2-4.1-6-2.1-10.1c3.3-6.9,7-13.6,10.6-20.3c0.7-1.2,1.6-2.3,2.5-3.4c5.1,8.8,8.4,18.3,10.3,28.3   C186.5,87.7,186.4,93.4,186.5,99.2"/>
	<path style="clip-path:url(#SVGID_00000122002041081711273050000005287760756615777963_);fill:#375D2D;" d="M175.1,53.7   c-0.8,1.1-1.8,2.2-2.5,3.4c-3.6,6.7-7.2,13.5-10.6,20.3c-2,4.1-1.2,6.9,2.1,10.1c1.3,1.3,2.6,2.7,3.5,4.3c0.6,1,0.9,2.3,0.8,3.5   c-0.2,3.3-1.5,6.3-3.9,8.7c-2.1,2.1-3.1,4.7-4.2,7.4c-1.2,3.1-2.2,6.2-3.5,9.2c-0.7,1.7-1.8,3.3-3,4.6c-2.4,2.5-5.4,3-8.7,1.7   c-2.2-0.9-4-2.3-5.5-4.1c-2.4-2.9-4.8-5.8-7.2-8.8c-3.3-4.1-7.3-5.2-12.2-3.6c-4.3,1.4-7.5,4.3-10.7,7.2c-4.6,4.1-9.2,8.1-14,11.9   c-3.9,3.1-7.9,2.9-11.8-0.2c-3.2-2.5-5.7-5.7-7.8-9.2c-1.9-3.2-3.5-6.5-5.5-9.6c-1.4-2.3-2.9-4.5-4.6-6.5c-4-4.9-9.6-6.9-15.7-7.1   c-6-0.2-12.1,0.1-18.1,0.3c-5.9,0.2-11.5-0.7-16.2-4.5c-2.4-2-4.3-4.5-6.4-6.7c0.2-1.5,0.1-3,0.5-4.5c1-4.1,2.1-8.3,3.2-12.4   c0.1-0.4,0.3-0.8,0.5-1.4c0.5,0.3,0.8,0.5,1.2,0.8c12.3,8.1,25.2,9.1,38.7,3c3.3-1.5,6.7-2.7,10.1-3.7c4.9-1.4,9,0.4,11.9,4.4   c1.9,2.6,3.4,5.4,5.2,8.1c1,1.6,2,3.1,3.1,4.7c3.2,4.7,7.9,5.9,12.9,3.2c2-1.1,4.1-2.2,6.1-3.3c4.6-2.5,9.5-2.7,14.5-1.4   c2.1,0.5,3.4,2.1,4.8,3.6c0.8,0.9,2,1.8,3.1,2.1c2.2,0.5,4.1-0.8,4.6-3.3c0.6-2.9,1-5.9,1.3-8.8c0.4-3.9,0.6-7.8,1.2-11.7   c0.6-4,2.7-7.4,5.5-10.3c6.9-7.3,14.9-13.2,24.1-17.4c1-0.5,1.6-0.4,2.4,0.5c3.8,4.4,7.3,9.1,10.3,14.1   C174.8,52.8,174.9,53.3,175.1,53.7"/>
	<path style="clip-path:url(#SVGID_00000122002041081711273050000005287760756615777963_);fill:#34221F;" d="M143.3,21.2   c-1.9,1.4-3.8,2.4-5.4,3.8c-7,6.1-13.3,12.9-18.8,20.5c-3.9,5.4-7.9,10.7-11.9,16.1c-0.4,0.6-0.9,1.1-1.4,1.6c-2.5,2.1-5,1.7-6.8-1   c-0.9-1.3-1.7-2.6-2.7-3.8c-1-1.4-2.4-2.4-4.2-2.1c-6.9,0.9-12-2.2-16.3-7.2c-1.8-2-3.8-3.9-5.9-5.6c-5.6-4.3-11.2-3.8-16.1,1.2   c-2.1,2.1-3.9,4.5-5.8,6.8c-3.3,3.9-7.4,5.7-12.5,4.8c-4.8-0.8-9.1-2.7-13.3-5.6C35.6,29.9,54.2,16.4,78.2,11   C101.1,5.7,122.8,9.4,143.3,21.2"/>
</g>
</svg>